<?xml version="1.0" encoding="utf-8"?>
<!-- Generator: Adobe Illustrator 24.0.2, SVG Export Plug-In . SVG Version: 6.00 Build 0)  -->
<svg version="1.1" id="Layer_1" xmlns="http://www.w3.org/2000/svg" xmlns:xlink="http://www.w3.org/1999/xlink" x="0px" y="0px"
	 viewBox="0 0 432.3 216.9" style="enable-background:new 0 0 432.3 216.9;" xml:space="preserve">
<style type="text/css">
	.st0{fill:none;stroke:#73BC74;stroke-width:2;stroke-linecap:round;stroke-linejoin:round;}
	.st1{fill-rule:evenodd;clip-rule:evenodd;fill:#F0F0F0;}
	.st2{fill-rule:evenodd;clip-rule:evenodd;fill:#73BC74;}
	.st3{fill:none;stroke:#404F54;stroke-width:2;stroke-linecap:round;}
	.st4{fill-rule:evenodd;clip-rule:evenodd;fill:#73BC74;stroke:#404F54;stroke-width:2;stroke-miterlimit:10;}
	.st5{fill:#404F54;stroke:#404F54;stroke-width:2;stroke-linecap:round;}
	.st6{fill-rule:evenodd;clip-rule:evenodd;fill:#F5F6F7;stroke:#404F54;stroke-width:2;stroke-linecap:round;}
	.st7{fill-rule:evenodd;clip-rule:evenodd;fill:#FF8F5C;stroke:#404F54;stroke-width:2;stroke-linecap:round;}
	.st8{fill:none;stroke:#404F54;stroke-width:2;stroke-linecap:round;stroke-linejoin:round;}
	.st9{fill-rule:evenodd;clip-rule:evenodd;fill:#404F54;}
	.st10{fill-rule:evenodd;clip-rule:evenodd;fill:#DAE2E6;}
	.st11{fill-rule:evenodd;clip-rule:evenodd;fill:#CBE7D3;stroke:#404F54;stroke-width:2;stroke-miterlimit:10;}
	.st12{fill:#E0EAEF;stroke:#404F54;stroke-width:2;stroke-linecap:round;}
	.st13{fill-rule:evenodd;clip-rule:evenodd;fill:#E1EBF0;}
	.st14{fill:none;stroke:#73BC74;stroke-width:2;stroke-linecap:round;}
	.st15{fill:#E6EDF1;}
	.st16{fill:#C4D3DA;}
	.st17{fill-rule:evenodd;clip-rule:evenodd;fill:#A4B5BB;}
	.st18{fill:#E0EAEF;stroke:#404F54;stroke-width:2.0181;stroke-linecap:round;}
	.st19{fill-rule:evenodd;clip-rule:evenodd;fill:#FFFFFF;}
	.st20{fill-rule:evenodd;clip-rule:evenodd;fill:#DAE2E6;stroke:#FFFFFF;stroke-width:2;stroke-linecap:round;}
	.st21{fill:none;stroke:#FFFFFF;stroke-width:2;stroke-linecap:round;stroke-linejoin:round;}
	.st22{fill:#E1EBF0;stroke:#404F54;stroke-width:2;stroke-linecap:round;stroke-linejoin:round;}
	.st23{fill:#CFDDE2;}
	.st24{fill:#F4F4E9;stroke:#404F54;stroke-width:2;stroke-miterlimit:10;}
	.st25{fill:#FF8F5C;stroke:#404F54;stroke-width:2;stroke-linecap:round;stroke-linejoin:round;}
	.st26{fill:#F2F1CE;}
	.st27{fill:none;stroke:#404F54;stroke-width:2;stroke-miterlimit:10;}
	.st28{fill:#F9BAA0;stroke:#404F54;stroke-width:2;stroke-linecap:round;stroke-linejoin:round;}
	.st29{fill:#73BC74;stroke:#404F54;stroke-width:2;stroke-miterlimit:10;}
	.st30{fill-rule:evenodd;clip-rule:evenodd;fill:#404F54;stroke:#404F54;stroke-width:2;stroke-linecap:round;}
	
		.st31{fill-rule:evenodd;clip-rule:evenodd;fill:#E1EBF0;stroke:#404F54;stroke-width:2;stroke-linecap:round;stroke-linejoin:round;}
	.st32{fill-rule:evenodd;clip-rule:evenodd;fill:#B6C8CE;}
	.st33{fill:#404F54;stroke:#404F54;stroke-width:2;stroke-linecap:round;stroke-linejoin:round;}
	.st34{fill:#F5F6F7;stroke:#404F54;stroke-width:2;stroke-linecap:round;}
	.st35{fill:#73BC74;}
	.st36{fill:#60AD60;}
	.st37{fill:#404F54;}
</style>
<title>tutor-img-157h</title>
<path id="Path-63" class="st0" d="M182.9,123.8l-4.6-9"/>
<path id="Path-64" class="st0" d="M193.9,124.4l2.7-8.5"/>
<path id="Path-65" class="st0" d="M175,132.8l-7-2.2"/>
<path id="Path-70" class="st1" d="M52.6,215.8c0,0-21.3-19.4-2.3-41.4s-25-35,28-53s29-84,110-53s52.5-41.9,119,12
	c63,51,95.4,15.2,73,73c-17,44,18,34,14,63"/>
<path class="st2" d="M142.6,207.9c-4.1,0-7.5,3.3-7.6,7.5h15.3C150.1,211.2,146.7,207.9,142.6,207.9z"/>
<path id="Combined-Shape-Copy-2" class="st3" d="M150.2,215.4c0-5.5-4.5-10-10-10c-5.5,0-10,4.5-10,10H150.2z"/>
<polygon class="st4" points="206.9,159.7 245.6,159.7 245.6,175 205.4,175 205.9,159.4 "/>
<circle id="Oval-5-Copy-3" class="st5" cx="246.3" cy="145.6" r="4.3"/>
<path id="Rectangle-31-Copy-6" class="st6" d="M225.6,158.2L225.6,158.2c3.1,0,5.6,2.5,5.6,5.6v8.9c0,3.1-2.5,5.6-5.6,5.6l0,0
	c-3.1,0-5.6-2.5-5.6-5.6v-8.9C220,160.7,222.5,158.2,225.6,158.2z"/>
<path id="Rectangle-31" class="st6" d="M225.6,115.8L225.6,115.8c11.6,0,21.1,9.4,21.1,21.1c0,0,0,0,0,0V149c0,11.6-9.4,21-21,21
	c0,0,0,0-0.1,0l0,0c-11.6,0-21-9.4-21.1-21v-12.1C204.6,125.2,214,115.8,225.6,115.8L225.6,115.8z"/>
<path id="Oval-5-Copy-2" class="st7" d="M221.9,158.9c0,2.2,1.8,4,4,4c2.2,0,4-1.8,4-4H221.9z"/>
<path id="Path-84" class="st8" d="M204.7,142.6l-0.1,9.7c0.1,6.5,8.2,10,11.8,10"/>
<path id="Rectangle-2" class="st9" d="M215.6,160.8h1.6c0.9,0,1.6,0.7,1.6,1.6l0,0c0,0.9-0.7,1.6-1.5,1.6c0,0,0,0,0,0h-1.6
	c-0.9,0-1.6-0.7-1.6-1.5c0,0,0,0,0,0l0,0C214.1,161.5,214.7,160.8,215.6,160.8z"/>
<path class="st10" d="M234.1,125.6c-0.6-1.5-1.4-2.9-2.5-4.1l-11.6,2l-17,14.5l-0.8,11.4l1.4-3.2c10.9-1.1,21.1-6.1,28.8-14l0.4,1
	c2.6,2.7,13,9.5,13,9.5v-13.4L234.1,125.6z"/>
<path class="st11" d="M224.6,108.9c-9.3,0-24.9,4.7-26,32.5s1.7,33.6,1.7,33.6l14,0.4c0,0-20.1-33.1-2.2-36.2s19.4-11.7,19.4-11.7
	c3.6,6.7,10,10.3,14.8,12.2l0,0v1.6c0.8,25.5-7.8,21.2-8.8,34s4.9,18.3,4.9,18.3c10.1-9.3,10.1-43.8,10.1-43.8v-8.3
	C251.8,112,233.9,108.9,224.6,108.9z"/>
<path class="st2" d="M240.2,166.8l-0.2,0.4L240.2,166.8z"/>
<path class="st2" d="M211.8,170.9l0.1,0.1L211.8,170.9z"/>
<path class="st2" d="M240.7,166.1l-0.3,0.4L240.7,166.1z"/>
<path class="st2" d="M211.5,170.2L211.5,170.2L211.5,170.2z"/>
<path class="st2" d="M211.1,169.4L211.1,169.4L211.1,169.4z"/>
<path class="st2" d="M210.6,168.5l0.1,0.2L210.6,168.5z"/>
<path class="st2" d="M238.3,170.9l-0.1,0.5L238.3,170.9z"/>
<path class="st2" d="M212.2,171.7L212.2,171.7L212.2,171.7z"/>
<path class="st2" d="M238.1,171.7c0,0.2-0.1,0.4-0.1,0.6C238,172.1,238.1,171.9,238.1,171.7z"/>
<path class="st2" d="M250.1,153.3v-8.4c-0.7-29.8-17-33-25.4-33s-22.6,4.7-23.6,32.8c-0.6,17.1,0.1,26,0.8,30.3l12.5,0.3h-0.9
	c-1.1-2.2-2.4-5.2-3.6-8.5l0,0c-4.6-10-9.7-25.6,2.3-27.7c17.9-3.1,19.4-11.7,19.4-11.7c3.6,6.7,10,10.3,14.8,12.2l0,0v1.6
	c0.4,12.9-1.6,18.1-3.8,21.9c-1.4,4.1-3.2,6.1-4.6,9.1c-0.2,1-0.4,2-0.4,3.1c-1,12.8,4.9,18.3,4.9,18.3c0.9-0.9,1.8-1.9,2.5-3
	C250.1,177,250.1,153.3,250.1,153.3z"/>
<path class="st2" d="M239.6,167.9l-0.2,0.4L239.6,167.9z"/>
<path class="st2" d="M238.6,170.2c-0.1,0.2-0.1,0.3-0.2,0.5C238.5,170.6,238.5,170.4,238.6,170.2z"/>
<path class="st2" d="M239.9,167.4l-0.2,0.4L239.9,167.4z"/>
<path class="st2" d="M239.3,168.5c-0.2,0.5-0.5,1-0.7,1.6C238.8,169.5,239.1,169,239.3,168.5z"/>
<path class="st2" d="M210.2,167.7c0,0.1,0,0.1,0.1,0.1C210.3,167.8,210.2,167.8,210.2,167.7z"/>
<path class="st2" d="M214.3,175.3L214.3,175.3z"/>
<path class="st2" d="M252.5,149.8L252.5,149.8z"/>
<path class="st2" d="M252.4,154.5c-0.3,8.3-1.7,25.5-6.8,34.9C250.8,180,252.1,162.8,252.4,154.5z"/>
<path class="st2" d="M244.9,190.6c0.2-0.4,0.5-0.8,0.7-1.2C245.4,189.8,245.1,190.2,244.9,190.6z"/>
<path class="st2" d="M252.5,150.2L252.5,150.2z"/>
<path class="st2" d="M252.5,151.1c0,0.8-0.1,2-0.1,3.4C252.5,153,252.5,151.9,252.5,151.1z"/>
<path class="st2" d="M252.5,150.6c0,0.2,0,0.3,0,0.5C252.5,150.9,252.5,150.7,252.5,150.6z"/>
<path class="st2" d="M213.2,173.5L213.2,173.5L213.2,173.5z"/>
<path class="st2" d="M212.6,172.4L212.6,172.4z"/>
<path class="st2" d="M213,173l-0.1-0.1L213,173z"/>
<path class="st2" d="M213.5,174L213.5,174z"/>
<path class="st2" d="M214.1,175L214.1,175z"/>
<path class="st2" d="M214.2,175.2L214.2,175.2L214.2,175.2z"/>
<path class="st2" d="M213.8,174.4L213.8,174.4L213.8,174.4z"/>
<path class="st2" d="M213.9,174.7L213.9,174.7L213.9,174.7z"/>
<path class="st8" d="M224.6,108.9c-9.3,0-24.9,4.7-26,32.5s1.7,33.6,1.7,33.6l14,0.4c0,0-20.1-33.1-2.2-36.2s19.4-11.7,19.4-11.7
	c3.6,6.7,10,10.3,14.8,12.2l0,0v1.6c0.8,25.5-7.8,21.2-8.8,34s4.9,18.3,4.9,18.3c10.1-9.3,10.1-43.8,10.1-43.8v-8.3
	C251.8,112,233.9,108.9,224.6,108.9z"/>
<path class="st8" d="M210.9,147.4c0,0,4.7-4.7,9.3,0"/>
<path class="st8" d="M231.2,147.4c0,0,4.7-4.7,9.3,0"/>
<path id="Rectangle-10" class="st12" d="M189.9,209.6h73c1.1,0,2,0.9,2,2v2c0,1.1-0.9,2-2,2h-73c-1.1,0-2-0.9-2-2v-2
	C187.9,210.5,188.8,209.6,189.9,209.6z"/>
<path id="Rectangle-3" class="st6" d="M281.2,183v21.1c0,3.3-2.7,6-6,6h-99c-3.3,0-6-2.7-6-6v-58l0,0c0-3.3,2.7-6,6-6h99
	c3.3,0,6,2.7,6,6v29.5"/>
<path id="Rectangle-9" class="st13" d="M171.2,188.8h109v15.3c0,2.8-2.2,5-5,5h-99c-2.8,0-5-2.2-5-5V188.8z"/>
<circle id="Oval-9" class="st14" cx="225.8" cy="162.5" r="7.5"/>
<circle id="Oval" class="st15" cx="178.7" cy="146.9" r="1.5"/>
<circle id="Oval-Copy" class="st15" cx="271.7" cy="146.9" r="1.5"/>
<circle id="Oval-Copy-3" class="st16" cx="178.7" cy="202.9" r="1.5"/>
<path id="Rectangle-7" class="st17" d="M212.7,195.4h26c0.6,0,1,0.4,1,1l0,0c0,0.6-0.4,1-1,1h-26c-0.6,0-1-0.4-1-1l0,0
	C211.7,195.9,212.2,195.4,212.7,195.4z"/>
<circle id="Oval-Copy-2" class="st16" cx="271.7" cy="202.9" r="1.5"/>
<path class="st18" d="M173.2,209.4h106c1.7,0,3,1.3,3,3l0,0c0,1.7-1.3,3-3,3h-106c-1.7,0-3-1.3-3-3l0,0
	C170.2,210.8,171.6,209.4,173.2,209.4z"/>
<path id="Polygon" class="st19" d="M44.7,121.7c0.4,0.6,0.8,1.1,1.2,1.6c0.5,0.5,1.1,0.9,1.7,1.2c-0.6,0.4-1.1,0.8-1.7,1.3
	c-0.4,0.5-0.9,1-1.2,1.6c-0.4-0.6-0.8-1.1-1.2-1.6c-0.5-0.5-1.1-0.9-1.7-1.3c0.6-0.4,1.2-0.8,1.7-1.2
	C43.9,122.8,44.3,122.2,44.7,121.7z"/>
<path id="Polygon-Copy-9" class="st19" d="M415.1,137.4c0.4,0.6,0.8,1.2,1.3,1.7c0.5,0.5,1.1,0.9,1.7,1.3c-0.6,0.4-1.2,0.8-1.7,1.3
	c-0.5,0.5-0.9,1.1-1.3,1.7c-0.4-0.6-0.8-1.2-1.3-1.7c-0.6-0.5-1.1-0.9-1.8-1.3c0.6-0.4,1.2-0.8,1.8-1.3
	C414.3,138.6,414.7,138,415.1,137.4z"/>
<path id="Polygon-Copy-4" class="st19" d="M365.9,127c0.5,0.8,1,1.5,1.6,2.2c0.7,0.6,1.4,1.2,2.2,1.6c-0.8,0.5-1.5,1.1-2.2,1.7
	c-0.6,0.7-1.1,1.4-1.6,2.2c-0.5-0.8-1-1.5-1.6-2.2c-0.7-0.6-1.5-1.2-2.3-1.7c0.8-0.5,1.6-1,2.3-1.6
	C364.9,128.5,365.4,127.8,365.9,127z"/>
<path id="Polygon-Copy-8" class="st19" d="M370,24.2c0.5,0.8,1,1.5,1.6,2.2c0.7,0.6,1.4,1.2,2.2,1.7c-0.8,0.5-1.5,1.1-2.2,1.7
	c-0.6,0.7-1.1,1.4-1.6,2.2c-0.5-0.8-1-1.5-1.6-2.2c-0.7-0.6-1.4-1.2-2.2-1.7c0.8-0.5,1.5-1,2.2-1.7C369,25.7,369.6,25,370,24.2z"/>
<path id="Polygon-Copy-3" class="st19" d="M276.1,45.7c0.3,0.6,0.7,1.1,1.2,1.7c0.5,0.5,1.1,0.9,1.7,1.2c-0.6,0.4-1.1,0.8-1.7,1.2
	c-0.4,0.5-0.9,1.1-1.2,1.6c-0.4-0.6-0.8-1.1-1.2-1.6c-0.5-0.5-1.1-0.9-1.7-1.3c0.6-0.4,1.2-0.8,1.7-1.2
	C275.3,46.9,275.7,46.3,276.1,45.7z"/>
<path id="Polygon-Copy-2" class="st19" d="M305.1,20.5c0.3,0.5,0.6,0.9,1,1.3c0.4,0.4,0.9,0.7,1.3,1c-0.5,0.3-0.9,0.6-1.3,1
	c-0.4,0.4-0.7,0.8-1,1.3c-0.3-0.5-0.6-0.9-0.9-1.3c-0.4-0.4-0.9-0.7-1.4-1c0.5-0.3,0.9-0.6,1.4-1C304.5,21.5,304.9,21,305.1,20.5z"
	/>
<path id="Polygon-Copy-5" class="st19" d="M235.9,85.6c0.3,0.5,0.6,0.9,1,1.3c0.4,0.4,0.9,0.7,1.3,1c-0.5,0.3-0.9,0.6-1.3,1
	c-0.4,0.4-0.7,0.8-1,1.3c-0.3-0.5-0.6-0.9-0.9-1.3c-0.4-0.4-0.9-0.7-1.3-1c0.5-0.3,0.9-0.6,1.3-1C235.3,86.5,235.6,86.1,235.9,85.6z
	"/>
<path id="Path-66" class="st20" d="M367.7,96.9l4.9-3.9"/>
<path id="Path-67" class="st20" d="M122.7,34l-5.5-5.5"/>
<path id="Path-67-Copy" class="st20" d="M36.8,148.9l-5.5-5.5"/>
<path id="Path-69" class="st20" d="M283.2,122.7h4.8"/>
<path id="Oval-22-Copy-10" class="st21" d="M429.2,156.7c4.1-7,1.9-16-5.1-20.1c-7-4.1-16-1.9-20.1,5.1c-0.4,0.7-0.8,1.5-1.1,2.3"/>
<path id="Oval-22-Copy-3" class="st21" d="M78.2,8.2c0,2.2,1.8,4,4,4l0,0c2.2,0,4-1.8,4-4s-1.8-4-4-4"/>
<circle id="Oval-22-Copy-8" class="st21" cx="403.9" cy="195.2" r="4"/>
<circle id="Oval-22-Copy-7" class="st21" cx="174.6" cy="34.4" r="2.8"/>
<path id="Oval-22-Copy-6" class="st21" d="M380.9,39c2-12-6.1-23.4-18.1-25.4c-11-1.8-21.6,4.8-24.8,15.4"/>
<path id="Oval-22-Copy-9" class="st21" d="M385.2,44.7c0-3.1-2.5-5.6-5.6-5.6c-3.1,0-5.6,2.5-5.6,5.6"/>
<path id="Oval-22-Copy-5" class="st21" d="M335.7,77.2c3.1-4,2.4-9.9-1.7-13c-4-3.1-9.9-2.4-13,1.7c-0.2,0.3-0.4,0.6-0.6,0.9"/>
<path id="Polygon-Copy-8-2" class="st19" d="M12.4,185.4c0.8,0.4,1.7,0.7,2.6,1c-0.6,0.7-1.2,1.4-1.7,2.2c-0.4,0.8-0.7,1.7-0.9,2.5
	c-0.7-0.6-1.4-1.2-2.1-1.7c-0.8-0.4-1.7-0.7-2.6-1c0.6-0.7,1.2-1.4,1.7-2.2c0.4-0.8,0.7-1.7,1-2.6C10.9,184.3,11.6,184.9,12.4,185.4
	z"/>
<path id="Oval-22-Copy-6-2" class="st21" d="M42.3,179.5c-5.3-8.2-15.3-11.9-24.6-9.3C6,173.6-0.8,185.8,2.6,197.5
	c0.3,1.1,0.8,2.3,1.3,3.4"/>
<path id="Oval-22-Copy-9-2" class="st21" d="M11.9,204.5c-0.8-3-3.9-4.7-6.9-3.8c-2.9,0.8-4.7,3.9-3.8,6.9"/>
<circle id="Oval-22-Copy-7-2" class="st21" cx="155.6" cy="87.4" r="2.8"/>
<circle id="Oval-22-Copy-7-3" class="st21" cx="189.6" cy="110.4" r="2.8"/>
<path id="Path-67-2" class="st20" d="M149.7,181l-5.5-5.5"/>
<path id="Polygon-Copy-3-2" class="st19" d="M280.1,87.7c0.3,0.6,0.7,1.1,1.2,1.7c0.5,0.5,1.1,0.9,1.7,1.2c-0.6,0.4-1.1,0.8-1.7,1.3
	c-0.4,0.5-0.9,1.1-1.2,1.6c-0.4-0.6-0.8-1.1-1.2-1.6c-0.5-0.5-1.1-0.9-1.7-1.3c0.6-0.4,1.2-0.8,1.7-1.2
	C279.3,88.9,279.7,88.3,280.1,87.7z"/>
<path id="Polygon-Copy-3-3" class="st19" d="M106.1,143.7c0.3,0.6,0.7,1.1,1.2,1.7c0.5,0.5,1.1,0.9,1.7,1.2
	c-0.6,0.4-1.1,0.8-1.7,1.2c-0.4,0.5-0.9,1.1-1.2,1.6c-0.4-0.6-0.8-1.1-1.2-1.6c-0.5-0.5-1.1-0.9-1.7-1.3c0.6-0.4,1.2-0.8,1.7-1.2
	C105.3,144.9,105.7,144.3,106.1,143.7z"/>
<path id="Oval-22-Copy-3-2" class="st21" d="M334.2,190.2c0,2.2,1.8,4,4,4l0,0c2.2,0,4-1.8,4-4s-1.8-4-4-4"/>
<path id="Oval-22-Copy-3-3" class="st21" d="M143.2,131.2c0,2.2,1.8,4,4,4l0,0c2.2,0,4-1.8,4-4s-1.8-4-4-4"/>
<path id="Oval-22-Copy-3-4" class="st21" d="M248.2,13.2c0,2.2,1.8,4,4,4l0,0c2.2,0,4-1.8,4-4s-1.8-4-4-4"/>
<path id="Polygon-Copy-2-2" class="st19" d="M360.1,57.5c0.3,0.5,0.6,0.9,1,1.3c0.4,0.4,0.9,0.7,1.3,1c-0.5,0.3-0.9,0.6-1.3,1
	c-0.4,0.4-0.7,0.8-1,1.3c-0.3-0.5-0.6-0.9-0.9-1.3c-0.4-0.4-0.9-0.7-1.4-1c0.5-0.3,0.9-0.6,1.4-1C359.5,58.5,359.9,58,360.1,57.5z"
	/>
<path id="Oval-22-Copy-3-5" class="st21" d="M306.2,99.2c0,2.2,1.8,4,4,4l0,0c2.2,0,4-1.8,4-4s-1.8-4-4-4"/>
<path id="Polygon-Copy-2-3" class="st19" d="M53.1,22.5c0.3,0.5,0.6,0.9,1,1.3c0.4,0.4,0.9,0.7,1.3,1c-0.5,0.3-0.9,0.6-1.3,1
	c-0.4,0.4-0.7,0.8-1,1.3c-0.3-0.5-0.6-0.9-0.9-1.3c-0.4-0.4-0.9-0.7-1.4-1c0.5-0.3,0.9-0.6,1.4-1C52.6,23.4,52.9,23,53.1,22.5z"/>
<circle id="Oval-22-Copy-7-4" class="st21" cx="50.6" cy="83.4" r="2.8"/>
<rect x="347.1" y="137.4" transform="matrix(0.7071 -0.7071 0.7071 0.7071 -9.1318 292.7941)" class="st22" width="3.6" height="40"/>
<rect x="348.3" y="136.9" transform="matrix(0.7071 -0.7071 0.7071 0.7071 -8.6298 293.0086)" class="st23" width="2.1" height="40"/>
<rect x="347.1" y="137.4" transform="matrix(0.7071 -0.7071 0.7071 0.7071 -9.1318 292.7941)" class="st8" width="3.6" height="40"/>
<circle class="st24" cx="318.5" cy="153" r="4.5"/>
<circle class="st25" cx="329.5" cy="139.9" r="8.6"/>
<path class="st26" d="M322.4,152.8c0,2.5-2,4.5-4.5,4.5c0,0,0,0,0,0v-9C320.3,148.3,322.4,150.3,322.4,152.8z"/>
<circle class="st27" cx="318.5" cy="153" r="4.5"/>
<path class="st25" d="M304.5,139.6l26.7,26.7c0.9,0.9,2.2,1,2.6,0.1l6.2-13.9c0.2-0.8,0-1.6-0.6-2.1l-19-19
	c-0.5-0.6-1.3-0.9-2.1-0.6l-13.9,6.2C303.5,137.4,303.5,138.7,304.5,139.6z"/>
<path class="st28" d="M313.4,133l4.9-2.2c0.8-0.2,1.6,0,2.1,0.6l19,19c0.6,0.5,0.9,1.3,0.6,2.1l-2.2,4.9L313.4,133z"/>
<polygon class="st22" points="350.4,205.9 359,170.4 365.4,172.8 362.6,205.9 "/>
<polygon class="st23" points="362.4,171.7 365.4,172.8 362.6,205.9 355.7,205.9 "/>
<polygon class="st8" points="350.4,205.9 359,170.4 365.4,172.8 362.6,205.9 "/>
<circle class="st25" cx="361.4" cy="170.4" r="6.5"/>
<circle class="st28" cx="361.4" cy="170.4" r="3.5"/>
<path class="st22" d="M343.2,209.9c6.3-7.3,17.3-8,24.6-1.7c0.6,0.5,1.2,1.1,1.7,1.7H343.2z"/>
<path class="st22" d="M372.4,214.9h-31c-1.4,0-2.5-1.1-2.5-2.5l0,0c0-1.4,1.1-2.5,2.5-2.5h31c1.4,0,2.5,1.1,2.5,2.5l0,0
	C374.9,213.8,373.8,214.9,372.4,214.9z"/>
<path class="st23" d="M356.4,203.9c5.1,0,9.9,2.2,13.2,6h-13.2V203.9z"/>
<path class="st8" d="M343.2,209.9c6.3-7.3,17.3-8,24.6-1.7c0.6,0.5,1.2,1.1,1.7,1.7H343.2z"/>
<path class="st23" d="M356.4,209.9h16c1.4,0,2.5,1.1,2.5,2.5s-1.1,2.5-2.5,2.5h-16V209.9z"/>
<path class="st8" d="M372.4,214.9h-31c-1.4,0-2.5-1.1-2.5-2.5l0,0c0-1.4,1.1-2.5,2.5-2.5h31c1.4,0,2.5,1.1,2.5,2.5l0,0
	C374.9,213.8,373.8,214.9,372.4,214.9z"/>
<circle class="st25" cx="224.2" cy="77.4" r="6"/>
<rect x="94.1" y="157.4" class="st22" width="14.2" height="58.5"/>
<rect x="94.6" y="197.9" class="st25" width="13.4" height="8.4"/>
<rect x="79.9" y="157.4" class="st22" width="14.2" height="58.5"/>
<rect x="80.3" y="197.9" class="st25" width="13.4" height="8.4"/>
<rect x="65.7" y="167" class="st22" width="14.2" height="48.9"/>
<rect x="66.1" y="197.9" class="st29" width="13.4" height="8.4"/>
<path id="Path-70-2" class="st30" d="M119.6,1h212.7"/>
<line class="st8" x1="224.2" y1="1.4" x2="224.2" y2="43.4"/>
<path class="st31" d="M225.2,41.4c-19.9,0-36,16.1-36,36h72C261.2,57.5,245.1,41.4,225.2,41.4z"/>
<path class="st32" d="M225.2,59.4c13.1,0,25.7,4.7,35.7,13.1c-2.7-19.7-20.8-33.5-40.5-30.8c-16,2.2-28.6,14.8-30.8,30.8
	C199.5,64.1,212.2,59.4,225.2,59.4z"/>
<path class="st8" d="M225.2,41.4c-19.9,0-36,16.1-36,36h72C261.2,57.5,245.1,41.4,225.2,41.4z"/>
<path class="st33" d="M220.7,34.4h6c1.9,0,3.5,1.6,3.5,3.5l0,0c0,1.9-1.6,3.5-3.5,3.5h-6c-1.9,0-3.5-1.6-3.5-3.5l0,0
	C217.2,36,218.8,34.4,220.7,34.4z"/>
<path class="st25" d="M62.7,49.9h61c1.7,0,3,1.3,3,3v61c0,1.7-1.3,3-3,3h-61c-1.7,0-3-1.3-3-3v-61C59.7,51.3,61.1,49.9,62.7,49.9z"
	/>
<path class="st34" d="M67.2,55.4h52c1.1,0,2,0.9,2,2v52c0,1.1-0.9,2-2,2h-52c-1.1,0-2-0.9-2-2v-52C65.2,56.3,66.1,55.4,67.2,55.4z"
	/>
<rect x="71.2" y="65.4" class="st35" width="4" height="37"/>
<path class="st34" d="M317.4,199.4l6.7-16.2c0.3-0.8,0-1.6-0.8-2c-0.8-0.3-1.6,0-2,0.8c0,0,0,0,0,0.1l-6.7,16.2L317.4,199.4z"/>
<path class="st34" d="M320,185.4l-6.7,16.2c-0.3,0.8,0.1,1.6,0.9,1.9c0.7,0.3,1.6-0.1,1.9-0.8l6.7-16.2L320,185.4z"/>
<path class="st34" d="M312.6,196l-3.5-17.1c-0.2-0.8-1-1.3-1.8-1.2c-0.8,0.2-1.3,1-1.2,1.8l3.5,17.1L312.6,196z"/>
<path class="st34" d="M306.9,182.9l3.5,17.1c0.2,0.8,1,1.3,1.8,1.2c0.8-0.2,1.3-1,1.2-1.8l-3.5-17.1L306.9,182.9z"/>
<path class="st29" d="M298.2,196.4v14c0,2.8,2.2,5,5,5h12c2.8,0,5-2.2,5-5v-14H298.2z"/>
<path class="st34" d="M305.2,196.4v-17.5c0-0.8-0.7-1.5-1.5-1.5s-1.5,0.7-1.5,1.5v17.5H305.2z"/>
<path class="st34" d="M302.2,182.4v17.5c0,0.8,0.7,1.5,1.5,1.5s1.5-0.7,1.5-1.5v-17.5H302.2z"/>
<path class="st36" d="M306.2,196.4h-8v14c0,2.8,2.2,5,5,5h3V196.4z"/>
<path class="st27" d="M298.2,196.4v14c0,2.8,2.2,5,5,5h12c2.8,0,5-2.2,5-5v-14H298.2z"/>
<path id="Path-70-3" class="st30" d="M55.6,215.9h338.7"/>
<g>
	<path class="st37" d="M78.6,73.1l2.1-0.1c0,0.3,0.1,0.6,0.3,0.8c0.2,0.3,0.6,0.4,1,0.4c0.3,0,0.6-0.1,0.7-0.2s0.3-0.3,0.3-0.5
		c0-0.2-0.1-0.4-0.2-0.5s-0.5-0.3-1.1-0.4c-1-0.2-1.7-0.5-2.1-0.9c-0.4-0.4-0.6-0.8-0.6-1.4c0-0.4,0.1-0.7,0.3-1s0.5-0.6,1-0.8
		s1-0.3,1.8-0.3c0.9,0,1.6,0.2,2.1,0.5s0.8,0.9,0.9,1.6l-2.1,0.1c-0.1-0.3-0.2-0.6-0.3-0.7s-0.4-0.2-0.7-0.2c-0.3,0-0.5,0.1-0.6,0.2
		s-0.2,0.2-0.2,0.4c0,0.1,0.1,0.2,0.2,0.3c0.1,0.1,0.4,0.2,0.7,0.3c1,0.2,1.7,0.4,2.1,0.6s0.7,0.5,0.9,0.8s0.3,0.7,0.3,1.1
		c0,0.5-0.1,0.9-0.4,1.3s-0.6,0.7-1.1,0.9s-1,0.3-1.7,0.3c-1.2,0-2.1-0.2-2.5-0.7S78.6,73.9,78.6,73.1z"/>
	<path class="st37" d="M85.7,68.4h6.7v1.8h-2.3v5.4h-2.2v-5.4h-2.3V68.4z"/>
	<path class="st37" d="M97.1,74.3h-2.5l-0.3,1.2H92l2.7-7.2h2.4l2.7,7.2h-2.3L97.1,74.3z M96.7,72.8l-0.8-2.6l-0.8,2.6H96.7z"/>
	<path class="st37" d="M98.9,68.4h2.5l1.4,2.4l1.4-2.4h2.4l-2.8,4.2v3h-2.2v-3L98.9,68.4z"/>
	<path class="st37" d="M83.4,86.3h-2.5l-0.3,1.2h-2.3l2.7-7.2h2.4l2.7,7.2h-2.3L83.4,86.3z M82.9,84.8l-0.8-2.6l-0.8,2.6H82.9z"/>
	<path class="st37" d="M85.5,80.4h6.7v1.8H90v5.4h-2.2v-5.4h-2.3V80.4z"/>
	<path class="st37" d="M79,92.4h2.2v2.5h2.4v-2.5h2.2v7.2h-2.2v-2.9h-2.4v2.9H79V92.4z"/>
	<path class="st37" d="M87,95.9c0-1.2,0.3-2.1,1-2.7s1.6-1,2.7-1c1.2,0,2.1,0.3,2.8,1s1,1.5,1,2.7c0,0.8-0.1,1.5-0.4,2.1
		s-0.7,1-1.2,1.3s-1.2,0.4-2,0.4c-0.8,0-1.5-0.1-2-0.4s-1-0.7-1.3-1.2S87,96.8,87,95.9z M89.2,95.9c0,0.7,0.1,1.2,0.4,1.6
		s0.6,0.5,1.1,0.5c0.5,0,0.8-0.2,1.1-0.5s0.4-0.9,0.4-1.7c0-0.7-0.1-1.2-0.4-1.5s-0.6-0.5-1.1-0.5c-0.4,0-0.8,0.2-1.1,0.5
		S89.2,95.2,89.2,95.9z"/>
	<path class="st37" d="M95.6,92.4h2.9l1.1,4.4l1.1-4.4h2.9v7.2h-1.8v-5.5l-1.4,5.5h-1.6l-1.4-5.5v5.5h-1.8V92.4z"/>
	<path class="st37" d="M105.1,92.4h5.9v1.5h-3.7V95h3.4v1.5h-3.4v1.4h3.8v1.6h-6V92.4z"/>
</g>
</svg>
