<svg xmlns="http://www.w3.org/2000/svg" viewBox="0 0 111.06 46.54"><title>logo-colored</title><g style="isolation:isolate"><g id="Layer_1" data-name="Layer 1"><g style="mix-blend-mode:multiply"><path d="M11.09,5.57A5.24,5.24,0,1,1,5.85.34,5.24,5.24,0,0,1,11.09,5.57Z" transform="translate(-0.61 -0.34)" style="fill:#8dc63f"/></g><path d="M68.61,9.42a1.82,1.82,0,0,1-1.36.9,23.36,23.36,0,0,1-4,0c-1.18,0-2.54,0-4.09.07A54.44,54.44,0,0,0,46,12.79a52.11,52.11,0,0,0-11.09,5A29.17,29.17,0,0,0,29.36,22a5.16,5.16,0,0,0-1.68,3.11c-.07,1.28.67,2.59,2.26,4s2.8,2.5,3.56,3.31h0s2.28,2.27,1.36,3.89a1.5,1.5,0,0,1-1.37.82,2.88,2.88,0,0,1-.82-.14A20.28,20.28,0,0,0,26.82,36a16,16,0,0,0-11,4.41,17.63,17.63,0,0,0-3.49,4.4,3.41,3.41,0,0,1-3.76,2,3,3,0,0,1-2.16-1.2c-.73-1-.84-2.54-.3-4.56a22.4,22.4,0,0,1,1.84-4.46c.36-.72.67-1.34.88-1.87a1.91,1.91,0,0,0,0-1.73c-.3-.45-.92-.66-1.88-.66-.26,0-.56,0-.88.05s-.53,0-.79,0a4.52,4.52,0,0,1-3.12-1l0,0A2.85,2.85,0,0,1,1.2,29.6a3.39,3.39,0,0,1,1.13-2.5c.18-.18.35-.37.55-.59C3.38,26,4,25.29,5.05,24.26c2.44-2.36,2.66-3.44,2.25-5a7.73,7.73,0,0,1,.12-5.4,3,3,0,0,1,1.19-1.31l.05,0A4,4,0,0,1,10.77,12a4.21,4.21,0,0,1,3.37,1.79,5.29,5.29,0,0,0,3.94,2h0c1.88,0,3.22-.65,6.45-2.19L25.78,13h0a48.88,48.88,0,0,1,8.36-3.22,75.41,75.41,0,0,1,9.76-2.22,81.57,81.57,0,0,1,12.84-1h0c2.18,0,4.4.08,6.59.25,4,.31,5.08,1.21,5.28,1.91A1.36,1.36,0,0,1,68.61,9.42Z" transform="translate(-0.61 -0.34)" style="fill:#bfd730"/><path d="M41.86,19h4.87c3.54,0,4.44,2.12,4.44,3.85a3.7,3.7,0,0,1-3.41,3.64l4,6.39H49.42L45.83,26.7h-2.1v6.18H41.86Zm1.87,6.07H46.2c1.49,0,3-.35,3-2.22s-1.48-2.22-3-2.22H43.73Z" transform="translate(-0.61 -0.34)" style="fill:#4d4d4f"/><path d="M60.46,32.85V31.13h0A3.86,3.86,0,0,1,57,33a5.3,5.3,0,1,1,0-10.6A4,4,0,0,1,60.42,24h0V22.82h1.89v10ZM57,24.08a3.57,3.57,0,1,0,3.5,3.6A3.44,3.44,0,0,0,57,24.08Z" transform="translate(-0.61 -0.34)" style="fill:#4d4d4f"/><path d="M64.3,32.85v-10h1.77v.87h0a3.1,3.1,0,0,1,2.58-1.18v1.94a3.67,3.67,0,0,0-1.37.36,2.65,2.65,0,0,0-1.12,2.53v5.51Z" transform="translate(-0.61 -0.34)" style="fill:#4d4d4f"/><path d="M71.47,29.7a3.44,3.44,0,0,0,4.14,1.21,3.23,3.23,0,0,0,2-2.69l1.74-.75a5.12,5.12,0,0,1-3.1,5.05,5.29,5.29,0,0,1-6.84-2.83,5.17,5.17,0,1,1,9.44-4.21,9.34,9.34,0,0,1,.33.91Zm5.42-3.92a3.28,3.28,0,0,0-6,2.59Z" transform="translate(-0.61 -0.34)" style="fill:#4d4d4f"/><path d="M87.33,28.9A5.18,5.18,0,0,1,87,30.8,3.53,3.53,0,0,1,83.61,33a3.71,3.71,0,0,1-3.73-3h2a1.65,1.65,0,0,0,1.71,1.15A1.59,1.59,0,0,0,85.21,30a3.63,3.63,0,0,0,.15-1V19h2Z" transform="translate(-0.61 -0.34)" style="fill:#4d4d4f"/><path d="M94.1,33a5.43,5.43,0,0,1-5.46-5.36,5.46,5.46,0,0,1,10.92,0A5.42,5.42,0,0,1,94.1,33Zm0-8.87a3.57,3.57,0,1,0,3.56,3.54A3.56,3.56,0,0,0,94.1,24.08Z" transform="translate(-0.61 -0.34)" style="fill:#4d4d4f"/><path d="M101,32.85V19h1.9v5h0a4.13,4.13,0,0,1,3.47-1.68,5.29,5.29,0,0,1,5.24,5.31,5.2,5.2,0,0,1-5.2,5.29,4.45,4.45,0,0,1-3.53-1.71h0v1.61Zm5.29-1.63a3.57,3.57,0,0,0,0-7.14,3.57,3.57,0,0,0,0,7.14Z" transform="translate(-0.61 -0.34)" style="fill:#4d4d4f"/></g></g></svg>